<?xml version="1.0" encoding="UTF-8"?>
<svg version="1.1" viewBox="0 0 38 40" xmlns="http://www.w3.org/2000/svg" xmlns:xlink="http://www.w3.org/1999/xlink">
<title>calendar</title>
<desc>Created with Sketch.</desc>
<defs>
<polygon id="a" points="0.05 0 37.334 0 37.334 39.95 0.05 39.95"/>
</defs>
<g fill="none" fill-rule="evenodd">
<g transform="translate(-6 -152)">
<g transform="translate(6 152)">
<mask id="b" fill="white">
<use xlink:href="#a"/>
</mask>
<path d="m36.667 2.6658h-4.6683v-1.9983c0-0.36833-0.29583-0.6675-0.66333-0.6675h-4.6683c-0.3675 0-0.6675 0.29917-0.6675 0.6675v1.9983h-14.664v-1.9983c0-0.36833-0.3-0.6675-0.6675-0.6675h-4.6683c-0.3675 0-0.6675 0.29917-0.6675 0.6675v1.9983h-4.6642c-0.36833 0-0.6675 0.3-0.6675 0.6675v35.999c0 0.36833 0.29917 0.6675 0.6675 0.6675h35.999c0.3675 0 0.6675-0.29917 0.6675-0.6675v-35.999c0-0.3675-0.3-0.6675-0.6675-0.6675zm-9.3325 2.6658h3.3333v-3.9967h-3.3333v3.9967zm-20.668 0h3.3333v-3.9967h-3.3333v3.9967zm-5.3317-1.3308h3.9967v1.9983c0 0.36833 0.3 0.6675 0.6675 0.6675h4.6683c0.3675 0 0.6675-0.29917 0.6675-0.6675v-1.9983h14.664v1.9983c0 0.36833 0.3 0.6675 0.6675 0.6675h4.6683c0.3675 0 0.66333-0.29917 0.66333-0.6675v-1.9983h4.0008v5.9992h-34.664v-5.9992zm0 34.664h34.664v-27.33h-34.664v27.33z" fill="#BDC1C9" mask="url(#b)" stroke="#BDC1C9"/>
<path d="m24.001 15.332h-18.002v19.337h25.336v-19.337h-7.3342zm-4.6683 6.0033h4.6683v-4.6683h-4.6683v4.6683zm0 5.9992h4.6683v-4.6683h-4.6683v4.6683zm-5.9992 0h4.6683v-4.6683h-4.6683v4.6683zm0-5.9992h4.6683v-4.6683h-4.6683v4.6683zm-5.9992 0h4.6642v-4.6683h-4.6642v4.6683zm0 5.9992h4.6642v-4.6683h-4.6642v4.6683zm0 5.9992h4.6642v-4.6683h-4.6642v4.6683zm5.9992 0h4.6683v-4.6683h-4.6683v4.6683zm5.9992 0h4.6683v-4.6683h-4.6683v4.6683zm5.9992 0h4.6683v-4.6683h-4.6683v4.6683zm0-5.9992h4.6683v-4.6683h-4.6683v4.6683zm0-5.9992h4.6683v-4.6683h-4.6683v4.6683z" fill="#BDC1C9" stroke="#BDC1C9"/>
</g>
</g>
</g>
</svg>
