<?xml version="1.0" encoding="UTF-8"?>
<svg version="1.1" viewBox="0 0 21 21" xmlns="http://www.w3.org/2000/svg">
<title>edit</title>
<desc>Created with Sketch.</desc>
<g fill="none" fill-rule="evenodd">
<g transform="translate(-472 -854)" fill="#656589">
<g transform="translate(472 854)">
<path d="m20.153 19.438h-19.306c-0.40588 0-0.72353 0.34103-0.72353 0.7359s0.33529 0.7359 0.72353 0.7359h19.324c0.40588 0 0.72353-0.34103 0.72353-0.7359s-0.33529-0.7359-0.74118-0.7359z"/>
<path d="m0.12353 12.923l-0.017647 3.5c0 0.19744 0.070588 0.39487 0.21176 0.53846 0.14118 0.14359 0.31765 0.21538 0.51176 0.21538l3.4235-0.017949c0.19412 0 0.37059-0.071795 0.51176-0.21538l11.824-12.026c0.28235-0.28718 0.28235-0.75385 0-1.059l-3.3882-3.4821c-0.28235-0.28718-0.74118-0.28718-1.0412 0l-2.3647 2.4231-9.4588 9.6026c-0.12353 0.14359-0.21176 0.32308-0.21176 0.52051zm12.565-10.967l2.3824 2.4231-1.3412 1.3641-2.3824-2.4231 1.3412-1.3641zm-11.1 11.29l8.7176-8.8667 2.3824 2.4231-8.7176 8.8487-2.4 0.017949 0.017647-2.4231z"/>
</g>
</g>
</g>
</svg>
