<?xml version="1.0" encoding="UTF-8"?>
<svg version="1.1" viewBox="0 0 32 42" xmlns="http://www.w3.org/2000/svg">
<title>prescription</title>
<desc>Created with Sketch.</desc>
<g fill="none" fill-rule="evenodd">
<g transform="translate(-257 -151)" fill="#BDC1C9" stroke="#BDC1C9">
<g transform="translate(21 130)">
<g transform="translate(175)">
<g transform="translate(62 22)">
<path d="m26.973 38.333h-23.601c-0.92939 0-1.6859-0.74789-1.6859-1.6667v-33.333c0-0.91883 0.75649-1.6667 1.6859-1.6667h16.858v5c0 1.8384 1.5121 3.3334 3.3717 3.3334h5.0575v26.667c0 0.91883-0.75649 1.6667-1.6859 1.6667zm-5.0575-35.488l5.5514 5.4883h-3.8655c-0.92939 0-1.6859-0.74789-1.6859-1.6667v-3.8216zm8.1822 5.7324l-8.4291-8.3334c-0.15805-0.15625-0.37204-0.24414-0.59591-0.24414h-17.701c-1.8596 0-3.3717 1.4949-3.3717 3.3334v33.333c0 1.8384 1.5121 3.3334 3.3717 3.3334h23.601c1.8596 0 3.3717-1.4949 3.3717-3.3334v-27.5c0-0.22133-0.088901-0.43289-0.24695-0.58914z"/>
<path d="m10 15.402h2.5862c1.4261 0 2.5862 1.0827 2.5862 2.4138s-1.1601 2.4138-2.5862 2.4138h-2.5862v-4.8276zm11.746 8.222c-0.37209-0.27661-0.91341-0.22003-1.2123 0.12574l-2.541 2.9646-3.9294-5.1344c1.6481-0.56558 2.8336-2.0322 2.8336-3.7642 0-2.2181-1.9338-4.023-4.3103-4.023h-3.4483c-0.47643 0-0.86201 0.35988-0.86201 0.80455v11.264c0 0.44474 0.38559 0.80455 0.86201 0.80455 0.47651 0 0.86209-0.35981 0.86209-0.80455v-4.023h2.1428l4.7305 6.181-3.2365 3.7759c-0.29717 0.34736-0.23656 0.85335 0.13472 1.1315 0.15905 0.11865 0.34938 0.17606 0.53793 0.17606 0.25337 0 0.50342-0.10372 0.67435-0.30172l2.9315-3.42 2.5903 3.3847c0.16835 0.22003 0.4327 0.3371 0.70207 0.3371 0.17344 0 0.34857-0.048728 0.50011-0.15011 0.3872-0.25775 0.47732-0.76057 0.20035-1.122l-2.8738-3.7551 2.846-3.3205c0.29717-0.34728 0.23656-0.85328-0.13472-1.1315z"/>
</g>
</g>
</g>
</g>
</g>
</svg>
