<?xml version="1.0" encoding="UTF-8"?>
<svg version="1.1" viewBox="0 0 33 33" xmlns="http://www.w3.org/2000/svg">
<title>Group 9</title>
<desc>Created with Sketch.</desc>
<g fill="none" fill-rule="evenodd">
<g transform="translate(-522 -152)" fill="#BDC1C9" fill-rule="nonzero">
<g transform="translate(522 152)">
<path d="m31.291 13.028l-2.3148-0.39269c-0.24113-0.7785-0.55115-1.5294-0.93006-2.2459l1.3641-1.9084c0.57871-0.81294 0.48914-1.9221-0.22046-2.6248l-2.053-2.053c-0.3858-0.3858-0.89562-0.59937-1.4399-0.59937-0.42714 0-0.83361 0.1309-1.1781 0.37891l-1.9152 1.3641c-0.74405-0.39269-1.5225-0.71649-2.3286-0.95762l-0.3858-2.2873c-0.16534-0.98518-1.0127-1.7017-2.0117-1.7017h-2.9004c-0.99896 0-1.8463 0.71649-2.0117 1.7017l-0.39958 2.3424c-0.77161 0.24113-1.5225 0.55804-2.239 0.94384l-1.8946-1.3641c-0.34447-0.24802-0.75783-0.37891-1.185-0.37891-0.54426 0-1.061 0.21357-1.4399 0.59937l-2.0599 2.053c-0.70271 0.70271-0.79916 1.8119-0.22046 2.6248l1.3779 1.9359c-0.37891 0.72338-0.68205 1.4743-0.91628 2.2528l-2.2873 0.3858c-0.98518 0.16534-1.7017 1.0127-1.7017 2.0117v2.9004c0 0.99896 0.71649 1.8463 1.7017 2.0117l2.3424 0.39958c0.24113 0.77161 0.55804 1.5225 0.94384 2.239l-1.3572 1.8877c-0.57871 0.81294-0.48914 1.9221 0.22046 2.6248l2.053 2.053c0.3858 0.3858 0.89562 0.59937 1.4399 0.59937 0.42714 0 0.83361-0.1309 1.1781-0.37891l1.9359-1.3779c0.69582 0.36514 1.4261 0.66138 2.177 0.89562l0.3858 2.3148c0.16534 0.98518 1.0127 1.7017 2.0117 1.7017h2.9073c0.99896 0 1.8463-0.71649 2.0117-1.7017l0.39269-2.3148c0.7785-0.24113 1.5294-0.55115 2.2459-0.93006l1.9084 1.3641c0.34447 0.24802 0.75783 0.37891 1.185 0.37891 0.54426 0 1.0541-0.21357 1.4399-0.59937l2.053-2.053c0.70271-0.70271 0.79916-1.8119 0.22046-2.6248l-1.3641-1.9152c0.37891-0.72338 0.69582-1.4743 0.93006-2.2459l2.3148-0.3858c0.98518-0.16534 1.7017-1.0127 1.7017-2.0117v-2.9004c0.013779-0.99896-0.70271-1.8463-1.6879-2.0117zm-0.15846 4.9121c0 0.089562-0.062004 0.16534-0.15157 0.17912l-2.8935 0.48225c-0.36514 0.062004-0.65449 0.33069-0.74405 0.68205-0.2618 1.0127-0.66138 1.9841-1.1987 2.8866-0.18601 0.31691-0.17223 0.7096 0.041336 1.0127l1.7017 2.3975c0.048226 0.068894 0.041336 0.17223-0.020668 0.23424l-2.053 2.053c-0.048226 0.048226-0.096451 0.055115-0.1309 0.055115-0.041336 0-0.075783-0.013779-0.10334-0.034447l-2.3906-1.7017c-0.29624-0.21357-0.69582-0.22735-1.0127-0.041336-0.90251 0.53737-1.8739 0.93695-2.8866 1.1987-0.35825 0.089562-0.62693 0.3858-0.68205 0.74405l-0.48914 2.8935c-0.013779 0.089562-0.089562 0.15157-0.17912 0.15157h-2.9004c-0.089562 0-0.16534-0.062004-0.17912-0.15157l-0.48225-2.8935c-0.062004-0.36514-0.33069-0.65449-0.68205-0.74405-0.98518-0.25491-1.9359-0.6476-2.8246-1.1574-0.14468-0.082672-0.31002-0.12401-0.46848-0.12401-0.18601 0-0.37891 0.055115-0.53737 0.17223l-2.4113 1.7154c-0.034447 0.020668-0.068894 0.034447-0.10334 0.034447-0.027557 0-0.082672-0.0068893-0.1309-0.055115l-2.053-2.053c-0.062004-0.062004-0.068894-0.15846-0.020668-0.23424l1.6948-2.3768c0.21357-0.30313 0.22735-0.70271 0.041336-1.0196-0.53737-0.89562-0.95073-1.867-1.2125-2.8797-0.096451-0.35136-0.3858-0.62004-0.74405-0.68205l-2.9142-0.49603c-0.089562-0.013779-0.15157-0.089562-0.15157-0.17912v-2.9004c0-0.089562 0.062004-0.16534 0.15157-0.17912l2.8729-0.48225c0.36514-0.062004 0.66138-0.33069 0.75094-0.68894 0.25491-1.0127 0.6476-1.991 1.1781-2.8935 0.18601-0.31691 0.16534-0.7096-0.048225-1.0058l-1.7154-2.4113c-0.048225-0.068894-0.041336-0.17223 0.020668-0.23424l2.053-2.053c0.048225-0.048225 0.096451-0.055115 0.1309-0.055115 0.041336 0 0.075783 0.013779 0.10334 0.034447l2.3768 1.6948c0.30313 0.21357 0.70271 0.22735 1.0196 0.041336 0.89562-0.53737 1.867-0.95073 2.8797-1.2125 0.35136-0.096451 0.62004-0.3858 0.68205-0.74405l0.49603-2.9142c0.013779-0.089562 0.089562-0.15157 0.17912-0.15157h2.9004c0.089562 0 0.16534 0.062004 0.17912 0.15157l0.48225 2.8729c0.062004 0.36514 0.33069 0.66138 0.68894 0.75094 1.0403 0.2618 2.0324 0.66827 2.9555 1.2125 0.31691 0.18601 0.7096 0.17223 1.0127-0.041336l2.3768-1.7086c0.034447-0.020668 0.068894-0.034447 0.10334-0.034447 0.027557 0 0.082672 0.0068894 0.1309 0.055115l2.053 2.053c0.062004 0.062004 0.068894 0.15846 0.020668 0.23424l-1.7017 2.3906c-0.21357 0.29624-0.22735 0.69582-0.041336 1.0127 0.53737 0.90251 0.93695 1.8739 1.1987 2.8866 0.089562 0.35825 0.3858 0.62693 0.74405 0.68205l2.8935 0.48914c0.089562 0.013779 0.15157 0.089562 0.15157 0.17912v2.9004h-0.0068893z"/>
<path d="m16.493 9.3696c-3.9269 0-7.1167 3.1898-7.1167 7.1167s3.1898 7.1167 7.1167 7.1167c3.9269 0 7.1167-3.1898 7.1167-7.1167s-3.1898-7.1167-7.1167-7.1167zm0 12.373c-2.9004 0-5.2566-2.3562-5.2566-5.2566s2.3562-5.2566 5.2566-5.2566c2.9004 0 5.2566 2.3562 5.2566 5.2566s-2.3562 5.2566-5.2566 5.2566z"/>
</g>
</g>
</g>
</svg>
