<?xml version="1.0" encoding="UTF-8"?>
<svg version="1.1" viewBox="0 0 41 41" xmlns="http://www.w3.org/2000/svg" xmlns:xlink="http://www.w3.org/1999/xlink">
<title>tag</title>
<desc>Created with Sketch.</desc>
<defs>
<polygon id="a" points="0.0051064 0.056766 48 0.056766 48 48.057 0.0051064 48.057"/>
</defs>
<g fill="none" fill-rule="evenodd">
<g transform="translate(-424 -152)">
<g transform="translate(21 130)">
<g transform="translate(346)">
<g transform="translate(57 22)">
<mask id="b" fill="white">
<use xlink:href="#a"/>
</mask>
<path d="m37.11 25.209l-11.957 11.957c-1.2944 1.2943-3.6206 1.2943-4.9149 0l-17.092-17.092c-0.85728-0.85728-1.3298-1.9973-1.3298-3.21v-13.176c0-1.0009 0.81472-1.8157 1.8157-1.8157h13.176c1.2128 0 2.3528 0.47251 3.21 1.3298l17.092 17.092c0.64715 0.64715 1.0177 1.5426 1.0177 2.4574s-0.37055 1.8103-1.0177 2.4574zm1.2837-6.1986l-17.092-17.092c-1.2003-1.2003-2.7961-1.8617-4.4938-1.8617h-13.176c-2.0027 0-3.6312 1.6285-3.6312 3.6312v13.176c0 1.6977 0.66136 3.2934 1.8617 4.4938l17.092 17.092c0.98494 0.98494 2.3484 1.5496 3.7412 1.5496 1.3927 0 2.7562-0.56468 3.7411-1.5496l11.957-11.957c0.98494-0.98494 1.5496-2.3484 1.5496-3.7411 0-1.3928-0.56468-2.7563-1.5496-3.7412z" fill="#BDC1C9" mask="url(#b)" stroke="#BDC1C9"/>
<path d="m7.2624 9.1348c-1.0009 0-1.8156-0.81472-1.8156-1.8157 0-1.0009 0.81472-1.8156 1.8156-1.8156 1.0009 0 1.8157 0.81472 1.8157 1.8156 0 1.0009-0.81472 1.8157-1.8157 1.8157zm0-5.4468c-2.0026 0-3.6311 1.6285-3.6311 3.6311 0 2.0027 1.6285 3.6312 3.6311 3.6312 2.0027 0 3.6312-1.6285 3.6312-3.6312 0-2.0026-1.6285-3.6311-3.6312-3.6311z" fill="#BDC1C9" stroke="#BDC1C9"/>
<path d="m22.961 19.387c-0.35464 0.35464-0.35464 0.92911 0 1.2837l2.9894 2.9894-2.336 2.336c-0.64715-0.66928-1.7226-1.7792-2.938-3.0248-0.16936-0.17379-0.40162-0.27217-0.64451-0.27396-0.29609-0.021277-0.47609 0.094808-0.64715 0.26596l-3.0443 3.0443-2.336-2.336c0.68443-0.66315 1.8307-1.7731 3.1117-3.0231 0.17285-0.16936 0.27217-0.39983 0.27387-0.64272 0.0017872-0.24204-0.093021-0.4743-0.26323-0.6463-1.5293-1.5426-2.4654-2.4699-3.0674-3.0283l2.281-2.281 3.0753 3.0753c0.35464 0.35464 0.92826 0.35549 1.2811 0.0026383 1.5089-1.4964 2.421-2.4166 2.9725-3.0115l2.281 2.281-2.9894 2.9894zm4.9149-3.6312l-3.6312-3.6311c-0.35464-0.35464-0.92911-0.35464-1.2837 0-0.07983 0.078894-0.14102 0.16928-0.18443 0.26596-0.15157 0.18528-0.70391 0.80136-2.7172 2.8111l-3.0771-3.0771c-0.35464-0.35464-0.92911-0.35464-1.2837 0l-3.6311 3.6311c-0.17736 0.17736-0.26596 0.40962-0.26596 0.64187s0.088596 0.46451 0.26596 0.64187c0.078894 0.078894 0.16843 0.14009 0.26502 0.18434 0.18706 0.15251 0.81209 0.71277 2.8591 2.7651-1.7535 1.7074-3.1117 3.0169-3.1117 3.0169-0.17643 0.17021-0.27574 0.40247-0.27838 0.6463-0.0017872 0.24289 0.093958 0.47779 0.26596 0.64979l3.6311 3.6312c0.17736 0.17728 0.40962 0.26596 0.64187 0.26596 0.23226 0 0.46451-0.088681 0.64187-0.26596l3.0363-3.0355c1.6649 1.7101 2.93 3.0231 2.93 3.0231 0.16928 0.17549 0.40247 0.27566 0.6463 0.27838 0.24638-0.034638 0.47779-0.093957 0.64979-0.26596l3.6312-3.6312c0.35455-0.35464 0.35455-0.92911 0-1.2837l-2.9894-2.9894 2.9894-2.9894c0.35455-0.35464 0.35455-0.92911 0-1.2837z" fill="#BDC1C9" stroke="#BDC1C9"/>
</g>
</g>
</g>
</g>
</g>
</svg>
